<?xml version="1.0" encoding="utf-8"?>
<!-- Generator: Adobe Illustrator 19.2.0, SVG Export Plug-In . SVG Version: 6.00 Build 0)  -->
<svg version="1.1" id="Layer_1" xmlns="http://www.w3.org/2000/svg" xmlns:xlink="http://www.w3.org/1999/xlink" x="0px" y="0px"
	 viewBox="0 0 309.7 309.7" style="enable-background:new 0 0 309.7 309.7;" xml:space="preserve">
<style type="text/css">
	.st0{fill:#231F20;}
	.st1{fill:#FFFFFF;}
</style>
<path class="st0" d="M343.9,2483.1l-21.9,41.1h-49.9l-21.4-40.2l46.5-35.1L343.9,2483.1z M245.4,2474l51.7-39l52.1,38.2l46.5-87.3
	v-11.2h-83.3l-15.3,26.4l-15.3-26.4h-83.3v11L245.4,2474z M198.4,2409.3v114.8h61.1L198.4,2409.3z M334.6,2524.1h61v-114.7
	L334.6,2524.1z"/>
<text transform="matrix(1 0 0 1 196.4037 2554.6792)" class="st0" style="font-family:'OpenSans-Bold'; font-size:24.8656px;">Macho themes</text>
<path class="st1" d="M218.5,175.8l-29.7,55.7h-67.7L92,177l63.1-47.6L218.5,175.8z M84.9,163.5l70.1-52.9l70.6,51.8l63-118.4V28.8
	h-113l-20.7,35.9l-20.7-35.9h-113v15L84.9,163.5z M21.1,75.8v155.7H104L21.1,75.8z M205.9,231.5h82.8V76L205.9,231.5z"/>
<g>
	<path class="st1" d="M31.6,273l-5.8-18.9h-0.1c0.2,3.8,0.3,6.4,0.3,7.7V273h-4.6v-24.1h7l5.7,18.4h0.1l6-18.4h7V273h-4.8v-11.4
		c0-0.5,0-1.2,0-1.9c0-0.7,0.1-2.6,0.2-5.6h-0.1L36.3,273H31.6z"/>
	<path class="st1" d="M68,273l-1.7-5.7h-8.8l-1.7,5.7h-5.5l8.5-24.2h6.2l8.5,24.2H68z M65,262.9c-1.6-5.2-2.5-8.1-2.7-8.8
		s-0.3-1.2-0.4-1.6c-0.4,1.4-1.4,4.9-3.1,10.4H65z"/>
	<path class="st1" d="M86.7,252.8c-1.9,0-3.4,0.7-4.5,2.2c-1.1,1.4-1.6,3.5-1.6,6c0,5.4,2,8.1,6,8.1c1.7,0,3.7-0.4,6.1-1.3v4.3
		c-2,0.8-4.2,1.2-6.6,1.2c-3.5,0-6.2-1.1-8-3.2s-2.8-5.2-2.8-9.1c0-2.5,0.5-4.7,1.4-6.6s2.2-3.3,3.9-4.3c1.7-1,3.7-1.5,6-1.5
		c2.3,0,4.7,0.6,7,1.7l-1.6,4.2c-0.9-0.4-1.8-0.8-2.7-1.1C88.5,252.9,87.6,252.8,86.7,252.8z"/>
	<path class="st1" d="M117.7,273h-5.1v-10.4h-9.5V273H98v-24.1h5.1v9.4h9.5v-9.4h5.1V273z"/>
	<path class="st1" d="M145.7,260.9c0,4-1,7-3,9.2c-2,2.1-4.8,3.2-8.5,3.2c-3.7,0-6.5-1.1-8.5-3.2c-2-2.1-3-5.2-3-9.2
		c0-4,1-7.1,3-9.2c2-2.1,4.8-3.2,8.5-3.2c3.7,0,6.5,1.1,8.5,3.2S145.7,256.9,145.7,260.9z M128.1,260.9c0,2.7,0.5,4.7,1.5,6.1
		c1,1.4,2.5,2,4.6,2c4.1,0,6.1-2.7,6.1-8.1c0-5.4-2-8.1-6.1-8.1c-2,0-3.6,0.7-4.6,2.1C128.6,256.2,128.1,258.2,128.1,260.9z"/>
	<path class="st1" d="M168.7,273h-5.1v-19.8h-6.5v-4.2h18.2v4.2h-6.5V273z"/>
	<path class="st1" d="M198.7,273h-5.1v-10.4h-9.5V273h-5.1v-24.1h5.1v9.4h9.5v-9.4h5.1V273z"/>
	<path class="st1" d="M218.6,273h-13.9v-24.1h13.9v4.2h-8.8v5.3h8.2v4.2h-8.2v6.2h8.8V273z"/>
	<path class="st1" d="M233.8,273l-5.8-18.9h-0.1c0.2,3.8,0.3,6.4,0.3,7.7V273h-4.6v-24.1h7l5.7,18.4h0.1l6-18.4h6.9V273h-4.8v-11.4
		c0-0.5,0-1.2,0-1.9c0-0.7,0.1-2.6,0.2-5.6h-0.1l-6.2,18.9H233.8z"/>
	<path class="st1" d="M269.3,273h-13.9v-24.1h13.9v4.2h-8.8v5.3h8.2v4.2h-8.2v6.2h8.8V273z"/>
	<path class="st1" d="M288.5,266.3c0,2.2-0.8,3.9-2.3,5.1c-1.6,1.3-3.7,1.9-6.5,1.9c-2.6,0-4.8-0.5-6.8-1.4v-4.7
		c1.6,0.7,3,1.2,4.1,1.5c1.1,0.3,2.2,0.4,3.1,0.4c1.1,0,2-0.2,2.6-0.6c0.6-0.4,0.9-1.1,0.9-1.9c0-0.5-0.1-0.9-0.4-1.3
		c-0.3-0.4-0.7-0.7-1.2-1.1c-0.5-0.3-1.6-0.9-3.1-1.6c-1.5-0.7-2.6-1.4-3.3-2s-1.3-1.4-1.8-2.2c-0.4-0.8-0.7-1.8-0.7-3
		c0-2.1,0.7-3.8,2.2-5c1.4-1.2,3.4-1.8,6-1.8c1.3,0,2.4,0.1,3.6,0.4c1.1,0.3,2.3,0.7,3.6,1.3l-1.6,4c-1.3-0.5-2.3-0.9-3.2-1.1
		c-0.8-0.2-1.7-0.3-2.5-0.3c-1,0-1.7,0.2-2.2,0.7c-0.5,0.5-0.8,1-0.8,1.8c0,0.5,0.1,0.8,0.3,1.2c0.2,0.3,0.5,0.7,1,1
		c0.5,0.3,1.5,0.9,3.2,1.7c2.2,1.1,3.8,2.2,4.6,3.2C288.1,263.4,288.5,264.7,288.5,266.3z"/>
</g>
</svg>
